<svg xmlns="http://www.w3.org/2000/svg" viewBox="0 0 214.63 212.51"><defs><style>.cls-1{fill:#1a1a1a;}.cls-2{fill:#f2f2f2;opacity:0.45;}.cls-2,.cls-3{stroke:#1a1a1a;stroke-miterlimit:10;stroke-width:4px;}.cls-3{fill:none;}</style></defs><g id="Layer_2" data-name="Layer 2"><g id="Layer_1-2" data-name="Layer 1"><path class="cls-1" d="M200.45,185.13l-5-5-1.26-2.42a35.84,35.84,0,0,0,8.29-12.17l5.35,2.21,5,5a6.15,6.15,0,0,1,0,8.68l-3.71,3.71A6.15,6.15,0,0,1,200.45,185.13Z"/><path class="cls-1" d="M41.36,1.8l5,5,1.26,2.43a43.94,43.94,0,0,0-13.74,9.65L29,14.18A6.13,6.13,0,0,1,29,5.5l3.71-3.7A6.13,6.13,0,0,1,41.36,1.8Z"/><path class="cls-1" d="M199.61,171.17,92.7,71.78S81,58.93,43.54,67.24s-30.24,5.3-30.24,5.3S-1.07,74.05.06,57.79l70.71,1.14A40.57,40.57,0,0,1,79,59.4a48.66,48.66,0,0,1,7.83,2.06c5.68,2.08,13.85,7.59,21.84,16.49l93.82,87.62Z"/><path class="cls-1" d="M43.18,11.47,149.56,120s13,11.55,5.19,49.09-4.88,30.31-4.88,30.31-1.32,14.39,14.92,13l-2.08-70.68a41.74,41.74,0,0,0-.59-8.26,48.08,48.08,0,0,0-2.17-7.8c-2.15-5.65-7.77-13.75-16.77-21.62C113.55,73.18,78.36,39.37,48.74,8.49Z"/><path class="cls-1" d="M109,70.35A43.92,43.92,0,0,1,132.53,84.4a43.19,43.19,0,0,1,9.23,18.46l-4.68,2.54a45.35,45.35,0,0,0-30.37-30.23Z"/><ellipse class="cls-2" cx="160.69" cy="145.54" rx="46.37" ry="46.83"/><ellipse class="cls-2" cx="66.19" cy="52.19" rx="46.37" ry="46.83"/><ellipse class="cls-3" cx="160.69" cy="145.54" rx="46.37" ry="46.83"/><ellipse class="cls-3" cx="66.19" cy="52.19" rx="46.37" ry="46.83"/></g></g></svg>